<svg version="1.1" id="Layer_1" x="0px" y="0px" xmlns="http://www.w3.org/2000/svg"
	 width="580px" height="157.5px" viewBox="0 0 580 157.5" enable-background="new 0 0 580 157.5" xml:space="preserve" >
<path fill="#EC1C24" d="M18.888,110.624c4.3,1.856,32.46,0,32.46,0s-2.969-18.916,0.327-32.448
	c2.979-12.253,17.883-44.722,20.535-45.714c2.651-0.993-0.338,64.937,1.658,69.552c2.224,5.163,7.289,9.942,15.897,9.274
	c8.608-0.664,14.566-2.978,17.882-9.274c3.317-6.293,2.652-8.606,2.652-8.606l-3.307-0.663c0,0-0.318,8.081-7.298,10.263
	c-6.295,1.978-4.637-13.908-4.637-16.887S94.73,16.904,94.73,16.904h-56.3v4.963h32.12c0,0-25.279,10.646-40.075,34.772
	C16.842,78.871,14.251,108.63,18.888,110.624z"/>
<path fill="#EC1C24" d="M128.459,109.67c5.143,0.926,9.085-4.033,9.205-2.938c0.367,3.494,4.04,3.672,11.042,3.117
	c7-0.559,8.638-9.008,8.638-10.109s-2.016,0-2.383,1.103c-0.368,1.103-0.744,2.214-3.685,4.05
	c-2.938,1.842,0.735-31.98,0.925-34.004c0.189-2.025,0.178-3.494-0.925-2.572c-1.102,0.924-5.331-0.368-6.989,0.368
	c-1.658,0.735-5.888-0.736-9.016-0.368c-3.127,0.368-15.449,2.572-18.579,19.482C113.564,104.706,123.316,108.748,128.459,109.67z
	 M128.281,87.063c1.102-5.332,3.127-13.236,5.888-13.236c1.47,0,3.296,4.04,0.915,16.542c-2.383,12.502-3.854,15.617-5.512,15.439
	C127.912,105.63,127.178,92.395,128.281,87.063z"/>
<path fill="#EC1C24" d="M160.66,79.714c0,0,3.495-5.331,5.521-2.758c2.025,2.57,1.659,8.09,1.659,11.763c0,3.676,0,20.396,0,20.396
	h11.219V94.6c0,0-0.367-3.863,2.394-3.863c2.761,0,3.863,1.3,3.863,5.521c0,5.688,0,12.683,0,12.683s6.623,0.199,8.638,0
	c5.709-0.56,6.624-3.129,7.547-4.965c0.923-1.84-0.18-3.308-2.016-1.104c-1.369,1.648-2.949,2.748-2.949-0.926
	c0-3.672,0.934-12.113-1.837-15.062c-2.264-2.403-6.087-2.959-8.837-2.036c-1.39,0.468-3.684-0.724-2.025-2.193
	c1.659-1.471,6.624-7.368,8.281-5.521c1.658,1.847,4.359,6.731,10.119,2.402c4.07-3.058,0.944-11.041-4.955-11.955
	c-4.369-0.674-7.199,1.104-11.975,6.436c-3.516,3.922-3.675,6.245-5.143,5.51c-1.47-0.735,1.38-9.571-8.838-10.842
	c-5.877-0.736-11.388,6.424-12.501,8.817C158.426,78.354,157.71,83.021,160.66,79.714z"/>
<path fill="#EC1C24" d="M211.837,71.632c1.588-0.229,3.158-1.122,2.938,2.264c-0.218,3.386-1.807,23.045-1.579,25.756
	c0.229,2.711,1.807,9.033,10.624,9.033c8.818,0,14.021-6.543,14.923-10.384c0.905-3.845,0-6.565-0.902-3.396
	c-0.904,3.168-2.939,6.792-4.975,6.334c-2.037-0.456-2.939-6.563,0.685-33.222c0,0-13.583,0.218-16.742,0.446
	c-3.157,0.229-7.01,0.904-7.685,2.939C208.451,73.439,210.248,71.861,211.837,71.632z"/>
<path fill="#EC1C24" d="M256.837,108.471c2.978,0.496,9.65-5.75,11.309-7.916c0.686-0.892,3.425,9.086,12.431,7.688
	c7.239-1.135,14.685-7.913,13.563-20.792c-1.123-12.877-12.194-18.974-16.95-18.299c-4.756,0.676-1.302,1.788,1.35,3.844
	c4.071,3.157,6.108,6.483,6.108,14c0,4.071-1.817,10.842-7.011,10.622c-2.521-0.106-3.624-7.673-2.266-10.611
	c1.363-2.939,2.494-0.656,2.494-1.808c0-0.219,0.228-1.589,0.228-1.589h-17.416l0.229,1.361c0,0,4.061-0.458,3.615,2.481
	c-0.447,2.941-2.065,9.314-5.423,9.494c-4.517,0.229-7.456-18.071,6.107-27.563c0.923-0.646-7.467-3.634-13.346,4.735
	c-3.436,4.886-8.411,9.453-6.325,23.058C246.44,103.049,250.055,107.337,256.837,108.471z"/>
<path fill="#EC1C24" d="M269.725,67.114c4.299,0,8.142-1.807,8.142-6.324c0-4.519-3.396-6.553-7.914-6.553
	c-3.843,0-7.239,2.481-7.239,6.096C262.714,63.947,265.426,67.114,269.725,67.114z"/>
<path fill="#EC1C24" d="M307.03,82.485c1.813-0.458,7.307-3.685,4.756-5.879c-1.59-1.36-2.036-3.843,0-3.843
	c2.034,0,7.466-0.903,7.009,2.036c-0.456,2.939-7.861,30.293,3.156,32.09c11.084,1.809,13.348-0.914,15.383-3.621
	c2.034-2.713,5.202-6.555,3.396-7.229c-1.343-0.498-4.3,8.598-5.432,3.624c-1.133-4.976,0.912-26.442,3.396-27.802
	c2.48-1.361,5.201-1.797,6.78-1.797c1.576,0,5.193-1.817,0.229-2.045h-39.798c0,0-9.035,0.029-8.369,8.588
	C297.994,82.485,305.212,82.941,307.03,82.485z"/>
<path fill="#EC1C24" d="M355.871,72.993c2.494,0.903,2.265-1.58,3.396-2.036c1.135-0.458,2.266-0.677,2.036,2.481l0.445,34.126
	l16.514-0.219c0,0-1.589-27.803,0.448-28.934c2.036-1.132,5.201-6.315,4.974-2.482c-0.229,3.832-0.229,22.132,0,24.623
	c0.229,2.494,0.685,7.924,8.6,7.238c7.913-0.686,11.647-0.387,15.816-7.686c0.904-1.576,1.818-6.553,1.818-6.553l-1.808-1.131
	c0,0-1.134,7.903-5.204,7.454c-4.072-0.444-2.483-6.553-2.711-9.489c-0.229-2.941-0.229-14.915-0.229-16.951s0.688-7.218-5.876-7
	c-6.563,0.219-9.503,0.665-11.537,2.025c-2.036,1.361-1.581,3.614-3.387,2.939c-1.808-0.675-1.818-3.614-1.361-4.29
	c0.457-0.674-3.832-1.132-6.324,0c-2.491,1.133-3.854,1.579-6.563,0.676c-2.711-0.903-5.192,0.447-7.687,0.903
	C354.521,69.19,353.38,72.089,355.871,72.993z"/>
<path fill="#EC1C24" d="M436.589,62.815c-20.455,1.826-20.941,18.299-21.249,23.283c-0.903,14.925,12.719,18.388,15.162,19.212
	c6.106,2.047-1.372,2.7-4.311,2.256c-2.938-0.448-5.592,1.498-4.07,4.973c2.672,6.097,9.949,4.747,14.923,4.293
	c4.976-0.459,15.153-6.098,14.925-14.906c-0.268-10.395-10.167-9.045-12.888-8.826c-2.719,0.217-13.336-3.159-9.723-15.817
	c3.615-12.66,12.749-8.638,14.478-7.229c2.493,2.025-0.884,2.581-1.577,4.072c-1.271,2.68,0.349,6.006,4.736,7.228
	c5.927,1.648,9.154-0.627,10.403-4.061C458.98,73.002,451.75,61.464,436.589,62.815z"/>
<polygon fill="#EC1C24" points="12.761,119.746 416.052,119.746 416.052,117.284 13.551,117.284 "/>
<path fill="#EC1C24" d="M510.065,109.552c-1.768-1.015-3.781-2.015-3.534-5.798s0.247-12.859,0.247-13.86
	c0-1.004,1.024-3.021-2.263-2.771c-3.287,0.248-3.784,3.027-6.563,2.521c-2.295-0.416-4.537-3.026-8.322-1.767
	c-3.78,1.262-11.348,6.047-11.854,17.893c-0.509,11.846,7.556,11.846,9.831,11.094c2.272-0.756,5.31-2.782,6.313-3.784
	c1.004-1.005,3.026-2.005,3.276,0.256c0.25,2.267,1.271,4.776,4.797,3.776c3.523-1.004,6.047-3.03,7.307-4.032
	C510.563,112.072,511.832,110.564,510.065,109.552z M496.444,100.229c-1.016,3.781-2.534,8.815-5.305,8.063
	c-2.771-0.755-1.521-6.308-0.506-8.321c1.013-2.018,1.508-6.554,4.29-6.554C497.218,93.417,497.454,96.443,496.444,100.229z"/>
<path fill="#EC1C24" d="M520.009,106.521c-3.028,0-4.538,3.029-4.538,5.799c0,2.771,2.771,5.549,5.044,5.549
	c2.274,0,5.552-1.518,5.552-5.797S523.036,106.521,520.009,106.521z"/>
<path fill="#EC1C24" d="M565.375,106.521c-3.028,0-4.538,3.029-4.538,5.799c0,2.771,2.771,5.549,5.044,5.549
	c2.275,0,5.55-1.518,5.55-5.797S568.401,106.521,565.375,106.521z"/>
<path fill="#EC1C24" d="M557.848,107.537c-1.508-1.512-2.003-2.008-4.03-0.249c-2.025,1.756-4.13,4.397-8.33,1.004
	c-2.055-1.66-0.257-3.517,1.263-4.282c1.519-0.763,4.29-1.773,4.29-3.531c0-1.76-2.264-2.783-4.032-2.524s-3.523-2.521,0-4.784
	c3.522-2.266,2.761-1.51,5.54,0c2.781,1.508,4.288,2.512,4.797,0.248c0.504-2.266-2.016-6.514-10.845-6.801
	c-7.565-0.249-11.854,5.798-13.623,8.318c-1.765,2.521-1.509,6.801,0.768,7.557c2.144,0.715,0.247,2.521-2.026,3.783
	c-1.399,0.772-0.765,8.313,8.063,10.076c8.45,1.699,12.632-0.492,16.155-3.019C559.358,110.813,559.358,109.044,557.848,107.537z"/>
<g>
	<path fill="#231F20" d="M15.315,128.432c-0.333-0.211-0.552-0.537-0.658-0.979c-0.106-0.443-0.076-0.914,0.091-1.42
		c1.452-0.35,2.842-0.557,4.173-0.617c1.33-0.061,2.698-0.091,4.104-0.091c0.952,0,1.883,0.063,2.79,0.194
		c0.907,0.129,1.715,0.293,2.426,0.49c0.711,0.199,1.285,0.422,1.724,0.665c0.438,0.243,0.658,0.487,0.658,0.731
		c0,0.137-0.114,0.238-0.341,0.31c-0.227,0.069-0.521,0.118-0.884,0.147s-0.768,0.046-1.213,0.046c-0.446,0-0.888-0.009-1.327-0.024
		c-0.439-0.014-0.847-0.023-1.225-0.031s-0.68-0.006-0.907,0.011c-0.65,0.831-1.206,1.771-1.667,2.813
		c-0.461,1.044-0.854,2.109-1.18,3.197c-0.325,1.089-0.597,2.151-0.816,3.188c-0.219,1.035-0.411,1.957-0.578,2.766
		c-0.166,0.811-0.321,1.46-0.465,1.952c-0.144,0.489-0.298,0.735-0.465,0.735c-0.091,0-0.189-0.105-0.294-0.317
		c-0.106-0.212-0.204-0.503-0.295-0.872c-0.09-0.37-0.167-0.803-0.227-1.293c-0.061-0.49-0.091-1.018-0.091-1.576
		c0-0.877,0.08-1.775,0.238-2.699c0.158-0.923,0.381-1.841,0.669-2.756c0.288-0.915,0.62-1.816,0.998-2.71
		c0.377-0.892,0.786-1.746,1.225-2.562c-0.499,0-1.055,0.019-1.667,0.057c-0.612,0.037-1.221,0.086-1.826,0.146
		c-0.604,0.062-1.171,0.133-1.701,0.217C16.056,128.23,15.633,128.326,15.315,128.432z"/>
	<path fill="#231F20" d="M32.687,139.545c0-0.348,0.08-0.598,0.238-0.749c0.158-0.151,0.344-0.233,0.556-0.249
		c0-0.257,0.132-0.521,0.396-0.794c0.265-0.272,0.613-0.537,1.043-0.795c0.431-0.256,0.911-0.494,1.44-0.714
		c0.529-0.219,1.069-0.415,1.622-0.588c0.552-0.176,1.084-0.311,1.599-0.409c0.514-0.099,0.96-0.147,1.338-0.147
		c0.394,0,0.847,0.049,1.361,0.147c0.514,0.101,0.998,0.269,1.452,0.51c0.454,0.243,0.839,0.566,1.157,0.976
		c0.318,0.408,0.476,0.914,0.476,1.521c0,0.726-0.219,1.356-0.658,1.894c-0.439,0.539-1.001,0.979-1.689,1.326
		c-0.688,0.348-1.456,0.605-2.302,0.772c-0.847,0.165-1.678,0.248-2.495,0.248c-0.59,0-1.21-0.05-1.86-0.147
		c-0.65-0.098-1.247-0.264-1.792-0.498c-0.544-0.233-0.994-0.541-1.35-0.92C32.865,140.55,32.687,140.088,32.687,139.545z
		 M35.839,137.982c-0.076,0.033-0.189,0.078-0.34,0.139c-0.15,0.063-0.317,0.131-0.499,0.206s-0.363,0.151-0.544,0.228
		c-0.181,0.078-0.34,0.141-0.476,0.187c0.167,0.091,0.355,0.212,0.567,0.364c0.212,0.151,0.468,0.302,0.771,0.445
		c0.302,0.146,0.661,0.271,1.078,0.377c0.416,0.108,0.911,0.16,1.486,0.16c0.483,0,1.02-0.052,1.61-0.16
		c0.589-0.105,1.142-0.238,1.656-0.398c0.513-0.161,0.944-0.344,1.292-0.549c0.348-0.207,0.521-0.401,0.521-0.584
		c0-0.185-0.09-0.332-0.272-0.446c-0.181-0.113-0.412-0.205-0.691-0.273c-0.28-0.069-0.589-0.114-0.93-0.139
		c-0.341-0.021-0.669-0.034-0.987-0.034c-0.68,0-1.387,0.034-2.12,0.104C37.226,137.676,36.52,137.801,35.839,137.982z"/>
	<path fill="#231F20" d="M57.973,139.545c0-0.348,0.08-0.598,0.238-0.749c0.158-0.151,0.344-0.233,0.556-0.249
		c0-0.257,0.132-0.521,0.397-0.794c0.264-0.272,0.612-0.537,1.043-0.795c0.431-0.256,0.911-0.494,1.44-0.714
		c0.528-0.219,1.069-0.415,1.622-0.588c0.551-0.176,1.084-0.311,1.599-0.409c0.514-0.099,0.96-0.147,1.338-0.147
		c0.393,0,0.847,0.049,1.361,0.147c0.514,0.101,0.998,0.269,1.451,0.51c0.454,0.243,0.839,0.566,1.157,0.976
		c0.317,0.408,0.476,0.914,0.476,1.521c0,0.726-0.22,1.356-0.658,1.894c-0.439,0.537-1.002,0.979-1.689,1.326
		c-0.688,0.348-1.456,0.605-2.302,0.772c-0.847,0.165-1.678,0.248-2.495,0.248c-0.59,0-1.21-0.05-1.86-0.147
		c-0.651-0.098-1.247-0.264-1.792-0.498c-0.544-0.233-0.995-0.541-1.35-0.92C58.151,140.55,57.973,140.088,57.973,139.545z
		 M61.126,137.979c-0.076,0.03-0.189,0.076-0.341,0.137c-0.151,0.061-0.317,0.129-0.499,0.203c-0.182,0.076-0.363,0.152-0.544,0.229
		c-0.181,0.075-0.34,0.137-0.476,0.182c0.166,0.092,0.355,0.217,0.567,0.369c0.211,0.153,0.469,0.303,0.771,0.448
		c0.302,0.147,0.661,0.272,1.077,0.382c0.416,0.108,0.911,0.16,1.485,0.16c0.484,0,1.021-0.052,1.611-0.16
		c0.589-0.105,1.141-0.238,1.655-0.398c0.514-0.161,0.945-0.344,1.292-0.549c0.348-0.207,0.521-0.401,0.521-0.584
		c0-0.185-0.09-0.332-0.272-0.446c-0.181-0.113-0.412-0.205-0.692-0.273c-0.28-0.069-0.589-0.114-0.929-0.139
		c-0.341-0.021-0.669-0.034-0.987-0.034c-0.68,0-1.388,0.034-2.121,0.104C62.513,137.675,61.807,137.798,61.126,137.979z
		 M65.843,130.404c0.076-0.241,0.216-0.411,0.42-0.51c0.204-0.1,0.352-0.146,0.442-0.146c0.076,0,0.185,0.02,0.33,0.057
		c0.143,0.037,0.283,0.094,0.419,0.17c0.135,0.075,0.252,0.183,0.351,0.316c0.098,0.136,0.147,0.296,0.147,0.477
		c0,0.166-0.061,0.334-0.181,0.5c-0.122,0.166-0.243,0.312-0.363,0.43l-0.317,0.296c-0.197,0.182-0.401,0.383-0.612,0.603
		c-0.212,0.219-0.413,0.422-0.601,0.611c-0.189,0.188-0.367,0.345-0.533,0.464c-0.167,0.122-0.303,0.183-0.408,0.183
		c-0.121,0-0.227-0.054-0.317-0.16c-0.091-0.104-0.136-0.231-0.136-0.385c0-0.15,0.057-0.365,0.17-0.646
		c0.114-0.28,0.245-0.567,0.397-0.86c0.151-0.296,0.302-0.572,0.454-0.83C65.654,130.715,65.767,130.525,65.843,130.404z"/>
	<path fill="#231F20" d="M74.529,142.583c-0.56,0-0.983-0.197-1.27-0.59c-0.288-0.394-0.484-0.899-0.589-1.521
		c-0.107-0.619-0.148-1.322-0.125-2.107c0.023-0.786,0.072-1.58,0.147-2.383c0.393-0.241,0.828-0.342,1.304-0.305
		s0.865,0.23,1.168,0.578c-0.091,0.86-0.133,1.571-0.125,2.131c0.007,0.561,0.049,1.051,0.125,1.475
		c0.302-0.228,0.657-0.5,1.065-0.816s0.839-0.645,1.293-0.984c0.454-0.343,0.91-0.678,1.372-1.012
		c0.461-0.332,0.899-0.63,1.315-0.895c0.415-0.266,0.793-0.477,1.134-0.637c0.34-0.158,0.616-0.238,0.828-0.238
		c0.166,0,0.25,0.076,0.25,0.228c0,0.167-0.136,0.458-0.409,0.875c-0.271,0.415-0.631,0.884-1.077,1.406
		c-0.446,0.521-0.952,1.065-1.52,1.632c-0.567,0.566-1.142,1.084-1.724,1.555c-0.583,0.469-1.149,0.854-1.701,1.155
		C75.439,142.432,74.952,142.583,74.529,142.583z"/>
	<path fill="#231F20" d="M83.554,139.545c0-0.348,0.08-0.598,0.239-0.749s0.344-0.233,0.556-0.249c0-0.257,0.132-0.521,0.397-0.794
		c0.264-0.272,0.612-0.537,1.043-0.795c0.431-0.256,0.911-0.494,1.44-0.714c0.529-0.219,1.069-0.415,1.622-0.588
		c0.551-0.176,1.084-0.311,1.599-0.409c0.514-0.099,0.959-0.147,1.338-0.147c0.393,0,0.846,0.049,1.36,0.147
		c0.514,0.101,0.998,0.269,1.452,0.51c0.454,0.243,0.839,0.566,1.156,0.976c0.317,0.408,0.477,0.914,0.477,1.521
		c0,0.726-0.219,1.356-0.658,1.894c-0.438,0.537-1.001,0.979-1.69,1.326c-0.688,0.348-1.455,0.605-2.301,0.772
		c-0.847,0.165-1.678,0.248-2.495,0.248c-0.59,0-1.209-0.05-1.859-0.147s-1.248-0.264-1.792-0.498
		c-0.544-0.233-0.995-0.541-1.35-0.92C83.731,140.55,83.554,140.088,83.554,139.545z M86.707,137.982
		c-0.076,0.033-0.189,0.078-0.34,0.139c-0.151,0.063-0.317,0.131-0.499,0.206c-0.181,0.075-0.363,0.151-0.544,0.228
		c-0.182,0.078-0.34,0.141-0.476,0.187c0.166,0.091,0.355,0.212,0.567,0.364c0.211,0.151,0.468,0.302,0.771,0.445
		c0.303,0.146,0.662,0.271,1.078,0.377c0.416,0.108,0.911,0.16,1.486,0.16c0.483,0,1.02-0.052,1.61-0.16
		c0.589-0.105,1.141-0.238,1.656-0.398c0.514-0.161,0.944-0.344,1.292-0.549c0.348-0.207,0.521-0.401,0.521-0.584
		c0-0.185-0.09-0.332-0.271-0.446c-0.182-0.113-0.413-0.205-0.692-0.273c-0.28-0.069-0.589-0.114-0.93-0.139
		c-0.341-0.021-0.669-0.034-0.987-0.034c-0.68,0-1.388,0.034-2.12,0.104C88.094,137.676,87.387,137.801,86.707,137.982z"/>
	<path fill="#231F20" d="M101.243,142.094c-0.106,0.303-0.25,0.709-0.431,1.225c-0.182,0.513-0.378,1.07-0.589,1.677
		c-0.212,0.604-0.424,1.219-0.635,1.846c-0.212,0.626-0.409,1.204-0.59,1.733c-0.182,0.785-0.344,1.343-0.488,1.677
		c-0.144,0.332-0.276,0.498-0.397,0.498c-0.09,0-0.17-0.11-0.238-0.328c-0.068-0.219-0.117-0.509-0.147-0.872
		c0-1.568,0.147-3.141,0.441-4.718c0.295-1.576,0.692-3.118,1.191-4.631c0.499-1.511,1.084-2.979,1.757-4.407
		c0.672-1.43,1.402-2.771,2.188-4.025c0.786-1.254,1.6-2.412,2.438-3.471c0.839-1.059,1.682-1.979,2.528-2.768
		c0.227-0.137,0.465-0.182,0.715-0.137c0.249,0.047,0.464,0.151,0.646,0.318c0.181,0.165,0.321,0.378,0.419,0.635
		c0.098,0.256,0.117,0.545,0.056,0.861c-0.166,0.091-0.461,0.363-0.884,0.816c-0.423,0.453-0.904,1.022-1.44,1.711
		c-0.537,0.688-1.1,1.457-1.69,2.304c-0.589,0.846-1.126,1.708-1.61,2.585s-0.881,1.73-1.191,2.563s-0.464,1.573-0.464,2.224
		c0,0.288,0.038,0.569,0.113,0.851c0.076,0.279,0.22,0.42,0.431,0.42c0.151,0,0.359-0.074,0.624-0.227
		c0.265-0.151,0.571-0.364,0.918-0.637c0.469-0.379,0.948-0.803,1.44-1.28c0.491-0.476,1.001-0.923,1.53-1.338
		c0.529-0.416,1.078-0.769,1.645-1.056c0.567-0.287,1.16-0.431,1.781-0.431c0.529,0,0.979,0.101,1.349,0.302
		c0.37,0.202,0.68,0.471,0.93,0.799c0.249,0.33,0.45,0.697,0.601,1.104c0.151,0.407,0.261,0.82,0.329,1.244s0.113,0.822,0.136,1.201
		c0.023,0.379,0.034,0.703,0.034,0.977c0,0.453-0.011,0.789-0.034,1.008c-0.022,0.219-0.094,0.329-0.215,0.329
		c-0.091,0-0.227-0.132-0.408-0.396c-0.182-0.266-0.34-0.551-0.477-0.853c-0.167-0.362-0.318-0.737-0.454-1.12
		c-0.136-0.387-0.284-0.742-0.442-1.066c-0.159-0.327-0.34-0.596-0.545-0.807c-0.204-0.211-0.449-0.317-0.737-0.317
		c-0.393,0-0.771,0.118-1.134,0.353c-0.363,0.234-0.745,0.536-1.145,0.907c-0.4,0.37-0.835,0.785-1.305,1.247
		c-0.468,0.461-1.013,0.91-1.632,1.35c-0.394,0.272-0.805,0.524-1.236,0.76c-0.431,0.233-1.002,0.353-1.713,0.353
		c-0.347,0-0.699-0.103-1.054-0.304C101.806,142.576,101.5,142.35,101.243,142.094z"/>
	<path fill="#231F20" d="M131.156,140.542c0.227,0.288,0.442,0.522,0.646,0.703c0.204,0.182,0.386,0.33,0.544,0.442
		c0.159,0.112,0.283,0.203,0.374,0.271c0.09,0.066,0.136,0.132,0.136,0.191c0,0.045-0.031,0.1-0.09,0.158
		c-0.06,0.063-0.159,0.092-0.295,0.092c-0.53,0-1.021-0.119-1.475-0.362c-0.454-0.242-0.854-0.529-1.202-0.86
		c-0.347-0.334-0.631-0.67-0.851-1.011c-0.219-0.341-0.358-0.606-0.419-0.806c-0.045,0.046-0.204,0.154-0.477,0.33
		c-0.272,0.173-0.619,0.381-1.043,0.621c-0.423,0.244-0.918,0.492-1.485,0.75c-0.567,0.256-1.168,0.498-1.804,0.727
		c-0.635,0.227-1.299,0.411-1.996,0.554c-0.695,0.146-1.383,0.218-2.063,0.218c-0.288,0-0.579-0.043-0.874-0.125
		c-0.294-0.082-0.559-0.207-0.793-0.373c-0.234-0.168-0.423-0.383-0.567-0.647s-0.215-0.594-0.215-0.985
		c0-0.393,0.155-0.82,0.465-1.281s0.722-0.907,1.236-1.338c0.515-0.432,1.1-0.832,1.758-1.201c0.657-0.371,1.331-0.674,2.019-0.908
		s1.372-0.383,2.052-0.442c0.681-0.061,1.293,0,1.837,0.183c0.197,0.183,0.318,0.386,0.363,0.611
		c0.045,0.227,0.034,0.452-0.034,0.68c-0.067,0.228-0.181,0.433-0.34,0.613c-0.159,0.184-0.336,0.316-0.533,0.408h-0.272
		c-0.076,0-0.17-0.003-0.284-0.011c-0.113-0.009-0.238-0.013-0.374-0.013c-0.469,0-0.957,0.08-1.463,0.24
		c-0.507,0.16-0.99,0.362-1.451,0.606c-0.461,0.245-0.885,0.509-1.271,0.789c-0.385,0.282-0.691,0.546-0.918,0.791
		c0.907-0.046,1.784-0.229,2.631-0.55c0.846-0.318,1.633-0.661,2.358-1.026c0.726-0.367,1.383-0.698,1.973-0.995
		c0.589-0.296,1.082-0.445,1.475-0.445c0.544,0,0.934,0.104,1.168,0.308s0.416,0.468,0.544,0.793s0.249,0.688,0.363,1.089
		C130.623,139.729,130.839,140.134,131.156,140.542z"/>
	<path fill="#231F20" d="M153.721,135.371c0.634,0,1.118,0.02,1.451,0.059c0.332,0.036,0.499,0.094,0.499,0.168
		c0,0.105-0.144,0.213-0.431,0.318c-0.287,0.105-0.627,0.216-1.02,0.328c-0.395,0.113-0.798,0.229-1.214,0.341
		c-0.417,0.113-0.76,0.231-1.032,0.351c0.287,0,0.567,0.027,0.839,0.082c0.272,0.051,0.552,0.116,0.839,0.191
		c0.151,0.029,0.337,0.098,0.556,0.203c0.22,0.105,0.428,0.249,0.624,0.432c0.197,0.182,0.363,0.404,0.499,0.67
		c0.136,0.266,0.205,0.577,0.205,0.939c0,0.438-0.118,0.82-0.352,1.146c-0.235,0.323-0.542,0.601-0.918,0.826
		c-0.378,0.227-0.805,0.411-1.282,0.557c-0.476,0.144-0.949,0.257-1.417,0.341c-0.469,0.081-0.916,0.144-1.338,0.182
		c-0.424,0.037-0.779,0.056-1.066,0.056c-0.257,0-0.62-0.021-1.088-0.067c-0.468-0.045-0.934-0.158-1.395-0.341
		c-0.461-0.182-0.862-0.442-1.203-0.78c-0.34-0.34-0.51-0.798-0.51-1.373c0-0.726,0.272-1.376,0.816-1.95
		c0.544-0.574,1.244-1.059,2.098-1.451c0.854-0.394,1.795-0.695,2.823-0.908C151.733,135.479,152.737,135.371,153.721,135.371z
		 M152.95,139.316c-0.439-0.227-0.918-0.324-1.44-0.295c-0.522,0.03-1.024,0.062-1.508,0.092c-0.469,0.029-0.881,0.088-1.236,0.171
		c-0.356,0.082-0.655,0.169-0.896,0.261c-0.242,0.09-0.423,0.173-0.544,0.249c-0.121,0.075-0.181,0.121-0.181,0.136
		c0,0.075,0.08,0.148,0.238,0.217c0.159,0.067,0.344,0.127,0.556,0.182c0.212,0.054,0.427,0.092,0.646,0.113
		c0.219,0.021,0.396,0.025,0.533,0.012c0.287-0.016,0.631-0.051,1.032-0.104c0.4-0.054,0.801-0.119,1.202-0.203
		c0.4-0.084,0.774-0.182,1.122-0.295c0.348-0.115,0.604-0.246,0.771-0.397c-0.015-0.029-0.027-0.06-0.035-0.091
		C153.203,139.333,153.116,139.316,152.95,139.316z"/>
	<path fill="#231F20" d="M158.348,138.296c-0.136-0.09-0.269-0.209-0.397-0.36c-0.129-0.151-0.227-0.326-0.295-0.522
		c-0.067-0.196-0.098-0.419-0.09-0.668c0.008-0.249,0.08-0.524,0.215-0.828c0.771-0.196,1.675-0.362,2.71-0.499
		c1.036-0.137,2.098-0.204,3.187-0.204c0.862,0,1.675,0.021,2.438,0.058c0.763,0.037,1.493,0.102,2.188,0.191
		c0.695,0.092,1.368,0.221,2.018,0.387c0.65,0.166,1.293,0.371,1.928,0.611c0.528,0.212,0.888,0.396,1.078,0.557
		c0.188,0.158,0.249,0.295,0.181,0.407c-0.068,0.113-0.231,0.209-0.488,0.284c-0.258,0.075-0.56,0.128-0.907,0.158
		c0.015,0-0.098-0.003-0.34-0.012c-0.242-0.008-0.563-0.016-0.963-0.023c-0.401-0.006-0.855-0.02-1.361-0.033
		c-0.507-0.015-1.017-0.025-1.53-0.033c-0.514-0.009-1.002-0.015-1.463-0.021c-0.461-0.01-0.842-0.012-1.145-0.012
		c-0.091,0.256-0.185,0.56-0.283,0.906c-0.099,0.348-0.186,0.688-0.261,1.021c-0.076,0.333-0.159,0.728-0.25,1.18
		c0-0.016-0.064,0.099-0.193,0.341c-0.128,0.241-0.28,0.488-0.453,0.736c-0.174,0.25-0.355,0.443-0.544,0.578
		c-0.189,0.137-0.351,0.099-0.487-0.113c-0.122-0.045-0.227-0.154-0.317-0.328c-0.091-0.175-0.163-0.363-0.216-0.566
		c-0.053-0.203-0.095-0.395-0.125-0.565c-0.031-0.176-0.045-0.301-0.045-0.376c0.015-0.303,0.053-0.611,0.113-0.929
		c0.046-0.272,0.102-0.574,0.17-0.907c0.068-0.335,0.163-0.658,0.284-0.977c-0.439,0-0.915,0.025-1.429,0.08
		c-0.514,0.054-0.99,0.117-1.428,0.191c-0.439,0.075-0.802,0.145-1.089,0.204C158.472,138.268,158.333,138.296,158.348,138.296z"/>
	<path fill="#231F20" d="M175.355,139.545c0-0.348,0.08-0.598,0.238-0.749c0.158-0.151,0.344-0.233,0.556-0.249
		c0-0.257,0.132-0.521,0.396-0.794c0.265-0.272,0.613-0.537,1.043-0.795c0.431-0.256,0.911-0.494,1.44-0.714
		c0.529-0.219,1.069-0.415,1.622-0.588c0.551-0.176,1.084-0.311,1.599-0.409c0.514-0.099,0.96-0.147,1.338-0.147
		c0.393,0,0.846,0.049,1.361,0.147c0.514,0.101,0.997,0.269,1.451,0.51c0.454,0.243,0.839,0.566,1.157,0.976
		c0.318,0.408,0.476,0.914,0.476,1.521c0,0.726-0.22,1.356-0.658,1.894s-1.001,0.979-1.689,1.326
		c-0.688,0.348-1.456,0.605-2.302,0.772c-0.847,0.165-1.678,0.248-2.495,0.248c-0.59,0-1.21-0.05-1.86-0.147
		c-0.651-0.098-1.247-0.264-1.792-0.498c-0.544-0.233-0.994-0.541-1.35-0.92C175.533,140.55,175.355,140.088,175.355,139.545z
		 M178.508,137.982c-0.076,0.033-0.189,0.078-0.34,0.139c-0.151,0.063-0.317,0.131-0.499,0.206s-0.363,0.151-0.544,0.228
		c-0.181,0.078-0.34,0.141-0.476,0.187c0.166,0.091,0.355,0.212,0.567,0.364c0.21,0.151,0.468,0.302,0.771,0.445
		c0.302,0.146,0.661,0.271,1.078,0.377c0.416,0.108,0.911,0.16,1.486,0.16c0.483,0,1.02-0.052,1.61-0.16
		c0.589-0.105,1.141-0.238,1.656-0.398c0.513-0.161,0.944-0.344,1.292-0.549c0.348-0.207,0.521-0.401,0.521-0.584
		c0-0.185-0.09-0.332-0.271-0.446c-0.181-0.113-0.413-0.205-0.692-0.273c-0.28-0.069-0.589-0.114-0.93-0.139
		c-0.341-0.021-0.669-0.034-0.987-0.034c-0.68,0-1.388,0.034-2.121,0.104C179.896,137.678,179.189,137.801,178.508,137.982z"/>
	<path fill="#231F20" d="M202.751,141.947c-0.711,0.666-1.259,0.965-1.644,0.896c-0.386-0.068-0.617-0.615-0.692-1.645
		c0.076-0.317,0.23-0.768,0.465-1.35c0.234-0.582,0.533-1.236,0.896-1.963c0.363-0.726,0.779-1.504,1.248-2.336
		c0.468-0.832,0.975-1.65,1.519-2.461c0.544-0.808,1.119-1.586,1.724-2.335c0.605-0.748,1.221-1.411,1.849-1.985
		c0.627-0.572,1.255-1.031,1.882-1.371s1.244-0.51,1.849-0.51c0.68,0,1.202,0.155,1.564,0.465c0.363,0.309,0.62,0.69,0.771,1.145
		c0.152,0.453,0.228,0.938,0.228,1.452s-0.023,0.976-0.068,1.383c0.333-0.544,0.699-1.159,1.1-1.847
		c0.401-0.688,0.824-1.338,1.271-1.951c0.446-0.612,0.915-1.126,1.406-1.542c0.492-0.417,1.001-0.624,1.531-0.624
		c0.483,0,0.873,0.148,1.167,0.441c0.295,0.295,0.514,0.688,0.658,1.181c0.144,0.489,0.223,1.065,0.238,1.724
		c0.015,0.657-0.019,1.354-0.102,2.086c-0.083,0.734-0.205,1.482-0.363,2.246c-0.159,0.764-0.336,1.501-0.533,2.21
		c-0.197,0.71-0.412,1.373-0.646,1.985c-0.234,0.611-0.457,1.128-0.669,1.553c-0.348,0.68-0.673,1.255-0.975,1.725
		c-0.303,0.469-0.567,0.842-0.794,1.123c-0.227,0.278-0.416,0.482-0.566,0.61c-0.151,0.128-0.257,0.192-0.317,0.192
		c-0.076,0-0.072-0.12,0.011-0.362c0.083-0.243,0.204-0.569,0.363-0.985s0.344-0.912,0.556-1.484
		c0.212-0.574,0.424-1.204,0.635-1.883c0.166-0.561,0.333-1.268,0.499-2.121c0.166-0.854,0.303-1.731,0.408-2.631
		c0.106-0.898,0.159-1.754,0.159-2.563c0-0.811-0.083-1.441-0.25-1.896c-0.241,0.183-0.514,0.508-0.816,0.977
		c-0.302,0.47-0.62,1.006-0.953,1.611c-0.333,0.604-0.676,1.234-1.032,1.893c-0.355,0.659-0.707,1.26-1.055,1.805
		c-0.347,0.543-0.688,0.992-1.02,1.35c-0.333,0.354-0.635,0.533-0.908,0.533c-0.454,0-0.782-0.133-0.986-0.396
		c-0.204-0.266-0.34-0.588-0.408-0.966c-0.068-0.377-0.094-0.767-0.08-1.167c0.016-0.4,0.023-0.737,0.023-1.012
		c-0.016-0.453-0.011-0.886,0.011-1.301c0.023-0.416,0.038-0.791,0.045-1.123c0.007-0.334-0.003-0.598-0.035-0.795
		c-0.029-0.197-0.097-0.294-0.204-0.294c-0.256,0-0.608,0.156-1.054,0.476c-0.446,0.316-0.938,0.757-1.475,1.316
		c-0.537,0.559-1.107,1.221-1.712,1.983c-0.605,0.763-1.194,1.602-1.769,2.516c-0.574,0.916-1.119,1.884-1.633,2.905
		C203.552,139.852,203.113,140.891,202.751,141.947z"/>
	<path fill="#231F20" d="M234.387,135.87c0.317,0.136,0.522,0.435,0.613,0.896s0.091,0.955,0,1.485
		c-0.075,0.394-0.178,0.874-0.306,1.44c-0.128,0.565-0.344,1.275-0.646,2.131c-0.302,0.853-0.726,1.881-1.27,3.085
		c-0.544,1.202-1.27,2.635-2.177,4.297c-0.423,0.649-0.76,1.112-1.009,1.383c-0.25,0.274-0.435,0.409-0.556,0.409
		c-0.106,0-0.159-0.113-0.159-0.34c0-0.121,0.03-0.33,0.091-0.625c0.061-0.295,0.182-0.76,0.363-1.395
		c0.091-0.316,0.224-0.759,0.397-1.326c0.173-0.565,0.37-1.199,0.589-1.895c0.219-0.695,0.446-1.421,0.68-2.178
		c0.234-0.756,0.458-1.475,0.669-2.153c0.212-0.683,0.397-1.297,0.556-1.849c0.158-0.553,0.275-0.979,0.351-1.282
		c-0.302,0-0.673,0.005-1.111,0.013s-0.888,0.016-1.35,0.021c-0.462,0.008-0.915,0.023-1.36,0.046
		c-0.446,0.022-0.813,0.041-1.1,0.057c-0.106,0.166-0.215,0.416-0.329,0.748c-0.114,0.332-0.223,0.688-0.329,1.065
		c-0.106,0.379-0.201,0.756-0.283,1.134c-0.083,0.379-0.147,0.704-0.193,0.978c-0.151,0.18-0.336,0.316-0.556,0.407
		c-0.219,0.091-0.446,0.134-0.68,0.124c-0.234-0.007-0.458-0.076-0.669-0.205c-0.211-0.128-0.371-0.326-0.476-0.6
		c0,0.016,0.008-0.025,0.023-0.125c0.015-0.098,0.045-0.271,0.09-0.521c0.045-0.248,0.113-0.598,0.204-1.043
		c0.092-0.445,0.22-1.01,0.386-1.689c0.106-0.469,0.242-0.865,0.408-1.189c0.166-0.326,0.363-0.59,0.59-0.793
		c0.227-0.205,0.495-0.359,0.805-0.466c0.31-0.104,0.662-0.181,1.055-0.228c0.529-0.062,1.111-0.113,1.746-0.158
		c0.635-0.047,1.267-0.068,1.894-0.068s1.21,0.031,1.747,0.091C233.62,135.613,234.055,135.719,234.387,135.87z"/>
	<path fill="#231F20" d="M251.102,140.542c0.227,0.288,0.442,0.522,0.647,0.703c0.204,0.182,0.385,0.33,0.544,0.442
		s0.283,0.203,0.375,0.271c0.09,0.066,0.135,0.132,0.135,0.191c0,0.045-0.031,0.1-0.09,0.158c-0.061,0.063-0.159,0.092-0.295,0.092
		c-0.53,0-1.021-0.119-1.474-0.362c-0.454-0.242-0.854-0.529-1.202-0.86c-0.348-0.334-0.631-0.67-0.85-1.011
		c-0.219-0.341-0.359-0.606-0.42-0.806c-0.045,0.046-0.204,0.154-0.476,0.33c-0.272,0.173-0.62,0.381-1.043,0.621
		c-0.423,0.244-0.918,0.492-1.485,0.75c-0.567,0.256-1.167,0.498-1.803,0.727c-0.635,0.227-1.301,0.411-1.996,0.554
		c-0.696,0.146-1.384,0.218-2.064,0.218c-0.287,0-0.578-0.043-0.873-0.125s-0.56-0.207-0.794-0.373
		c-0.234-0.168-0.423-0.383-0.567-0.647s-0.215-0.594-0.215-0.985c0-0.393,0.155-0.82,0.464-1.281
		c0.31-0.461,0.722-0.907,1.236-1.338c0.514-0.432,1.1-0.832,1.757-1.201c0.658-0.371,1.331-0.674,2.019-0.908
		s1.372-0.383,2.052-0.442s1.293,0,1.837,0.183c0.196,0.183,0.317,0.386,0.363,0.611c0.045,0.228,0.033,0.452-0.034,0.68
		c-0.068,0.228-0.182,0.433-0.34,0.613c-0.159,0.184-0.337,0.316-0.533,0.408h-0.272c-0.077,0-0.17-0.003-0.284-0.011
		c-0.113-0.009-0.238-0.013-0.374-0.013c-0.469,0-0.956,0.08-1.463,0.24s-0.99,0.362-1.451,0.606
		c-0.461,0.245-0.885,0.509-1.27,0.789c-0.386,0.282-0.692,0.546-0.918,0.791c0.907-0.046,1.784-0.229,2.631-0.55
		c0.847-0.318,1.633-0.661,2.358-1.026c0.726-0.367,1.384-0.698,1.974-0.995c0.589-0.296,1.081-0.445,1.475-0.445
		c0.543,0,0.933,0.104,1.167,0.308c0.235,0.204,0.416,0.468,0.545,0.793c0.128,0.325,0.249,0.688,0.363,1.089
		C250.569,139.729,250.784,140.134,251.102,140.542z M246.157,130.404c0.076-0.241,0.216-0.411,0.42-0.51
		c0.204-0.1,0.352-0.146,0.442-0.146c0.076,0,0.185,0.02,0.329,0.057s0.283,0.094,0.419,0.17c0.136,0.075,0.252,0.183,0.352,0.316
		c0.098,0.136,0.147,0.296,0.147,0.477c0,0.166-0.06,0.334-0.181,0.5c-0.122,0.166-0.242,0.312-0.363,0.43l-0.317,0.296
		c-0.197,0.182-0.4,0.383-0.612,0.603c-0.212,0.219-0.413,0.422-0.602,0.611c-0.189,0.188-0.366,0.345-0.533,0.464
		c-0.167,0.122-0.302,0.183-0.407,0.183c-0.122,0-0.227-0.054-0.318-0.16c-0.091-0.104-0.135-0.231-0.135-0.385
		c0-0.15,0.057-0.365,0.17-0.646c0.113-0.28,0.246-0.567,0.397-0.86c0.151-0.296,0.302-0.572,0.453-0.83
		C245.968,130.715,246.082,130.525,246.157,130.404z"/>
	<path fill="#231F20" d="M256.295,142.583c-0.56,0-0.983-0.197-1.27-0.59c-0.287-0.394-0.484-0.899-0.589-1.521
		c-0.106-0.619-0.148-1.322-0.125-2.107c0.023-0.786,0.072-1.58,0.147-2.383c0.394-0.241,0.829-0.342,1.304-0.305
		c0.477,0.037,0.865,0.23,1.168,0.578c-0.091,0.86-0.133,1.571-0.125,2.131c0.008,0.561,0.049,1.051,0.125,1.475
		c0.302-0.228,0.657-0.5,1.065-0.816c0.408-0.316,0.839-0.645,1.293-0.984c0.454-0.343,0.91-0.678,1.372-1.012
		c0.461-0.332,0.899-0.63,1.315-0.895c0.416-0.266,0.793-0.477,1.134-0.637c0.34-0.158,0.616-0.238,0.828-0.238
		c0.166,0,0.25,0.076,0.25,0.228c0,0.167-0.136,0.458-0.409,0.875c-0.271,0.415-0.632,0.884-1.077,1.406
		c-0.446,0.521-0.952,1.065-1.52,1.632c-0.567,0.566-1.142,1.084-1.723,1.555c-0.583,0.469-1.149,0.854-1.702,1.155
		C257.203,142.432,256.718,142.583,256.295,142.583z"/>
	<path fill="#231F20" d="M267.68,140.927c-0.304,0.394-0.579,0.749-0.829,1.066c-0.249,0.317-0.48,0.478-0.691,0.478
		c-0.151,0-0.284-0.072-0.397-0.217c-0.113-0.145-0.204-0.316-0.272-0.521c-0.067-0.203-0.121-0.426-0.158-0.668
		c-0.038-0.242-0.057-0.469-0.057-0.681c0.045-0.258,0.136-0.628,0.271-1.11c0.137-0.484,0.295-0.985,0.477-1.508
		c0.182-0.521,0.371-1.018,0.567-1.486c0.196-0.469,0.377-0.816,0.543-1.043c0.394,0.045,0.768,0.211,1.123,0.5
		c0.355,0.285,0.639,0.597,0.851,0.929c-0.318,0.71-0.59,1.396-0.817,2.053S267.86,140.111,267.68,140.927z"/>
	<path fill="#231F20" d="M270.922,139.545c0-0.348,0.08-0.598,0.238-0.749c0.159-0.151,0.344-0.233,0.556-0.249
		c0-0.257,0.133-0.521,0.397-0.794c0.264-0.272,0.613-0.537,1.043-0.795c0.431-0.256,0.911-0.494,1.44-0.714
		c0.529-0.219,1.069-0.415,1.622-0.588c0.552-0.176,1.084-0.311,1.599-0.409c0.514-0.099,0.96-0.147,1.338-0.147
		c0.394,0,0.847,0.049,1.36,0.147c0.514,0.101,0.998,0.269,1.451,0.51c0.454,0.243,0.839,0.566,1.157,0.976
		c0.318,0.408,0.477,0.914,0.477,1.521c0,0.726-0.22,1.356-0.658,1.894c-0.439,0.537-1.001,0.979-1.69,1.326
		c-0.688,0.348-1.455,0.605-2.301,0.772c-0.848,0.165-1.678,0.248-2.495,0.248c-0.59,0-1.21-0.05-1.86-0.147
		s-1.248-0.264-1.792-0.498c-0.544-0.233-0.994-0.541-1.35-0.92C271.1,140.55,270.922,140.088,270.922,139.545z M274.074,137.982
		c-0.076,0.033-0.188,0.078-0.34,0.139c-0.151,0.063-0.317,0.131-0.499,0.206c-0.181,0.075-0.363,0.151-0.544,0.228
		c-0.181,0.078-0.34,0.141-0.476,0.187c0.167,0.091,0.355,0.212,0.567,0.364c0.211,0.151,0.468,0.302,0.771,0.445
		c0.302,0.146,0.662,0.271,1.078,0.377c0.416,0.108,0.91,0.16,1.485,0.16c0.484,0,1.021-0.052,1.611-0.16
		c0.589-0.105,1.142-0.238,1.655-0.398c0.513-0.161,0.943-0.344,1.292-0.549c0.348-0.207,0.521-0.401,0.521-0.584
		c0-0.185-0.091-0.332-0.271-0.446c-0.182-0.113-0.412-0.205-0.692-0.273c-0.28-0.069-0.589-0.114-0.929-0.139
		c-0.341-0.021-0.67-0.034-0.987-0.034c-0.681,0-1.387,0.034-2.121,0.104C275.462,137.676,274.755,137.801,274.074,137.982z"/>
	<path fill="#231F20" d="M308.182,137.773c0.409,0.168,0.779,0.346,1.111,0.535c0.333,0.188,0.499,0.365,0.499,0.531
		c0,0.151-0.116,0.276-0.351,0.375c-0.235,0.1-0.549,0.146-0.941,0.146c-0.438-0.016-1.032-0.041-1.779-0.078
		c-0.75-0.039-1.548-0.077-2.394-0.114c-0.847-0.037-1.692-0.071-2.54-0.103c-0.848-0.029-1.588-0.045-2.223-0.045
		c-0.438,0-0.851,0.013-1.236,0.033c-0.385,0.021-0.727,0.045-1.02,0.069c-0.295,0.022-0.533,0.04-0.717,0.056
		c-0.181,0.016-0.285,0.022-0.316,0.022c-0.104-0.062-0.207-0.191-0.307-0.396c-0.099-0.205-0.17-0.428-0.216-0.671
		c-0.045-0.241-0.058-0.481-0.032-0.726c0.022-0.241,0.109-0.438,0.26-0.59c0.305-0.029,0.627-0.067,0.976-0.112
		c0.303-0.03,0.649-0.062,1.044-0.092c0.393-0.029,0.814-0.044,1.27-0.044c0.998,0,1.892,0.015,2.678,0.044
		c0.785,0.03,1.521,0.089,2.21,0.171c0.688,0.084,1.354,0.204,1.996,0.363C306.795,137.311,307.472,137.52,308.182,137.773z"/>
	<path fill="#231F20" d="M321.721,142.945c-0.149,0-0.26-0.211-0.328-0.635s-0.068-1.021,0-1.791
		c0.068-0.771,0.211-1.688,0.432-2.756c0.219-1.065,0.541-2.238,0.963-3.516c0.424-1.277,0.957-2.639,1.6-4.082
		c0.644-1.441,1.417-2.93,2.324-4.456c0.394-0.076,0.783-0.026,1.168,0.147c0.386,0.172,0.698,0.502,0.94,0.984
		c0.029,0.107-0.137,0.45-0.498,1.033c-0.363,0.581-0.801,1.41-1.316,2.482c0.969-0.606,1.902-1.142,2.803-1.61
		c0.897-0.47,1.712-0.868,2.438-1.202c0.727-0.333,1.339-0.586,1.837-0.76c0.5-0.174,0.832-0.262,0.998-0.262
		c0.182,0.047,0.362,0.131,0.544,0.25c0.182,0.121,0.321,0.274,0.421,0.466c0.098,0.188,0.128,0.417,0.091,0.681
		c-0.039,0.266-0.178,0.563-0.421,0.896c-0.831,0.302-1.7,0.65-2.606,1.043c-0.771,0.348-1.642,0.771-2.607,1.27
		c-0.969,0.5-1.943,1.089-2.926,1.771c0.771,0.195,1.617,0.469,2.54,0.815s1.875,0.806,2.856,1.371
		c0.981,0.567,1.961,1.271,2.938,2.108c0.975,0.84,1.893,1.843,2.754,3.005c0.483,0.651,0.809,1.161,0.977,1.53
		c0.166,0.371,0.248,0.625,0.248,0.761c0,0.091-0.038,0.137-0.112,0.137c-0.196,0-0.532-0.196-1.01-0.59
		c-0.477-0.394-1.076-0.87-1.803-1.429c-0.907-0.695-1.807-1.342-2.699-1.939c-0.892-0.597-1.813-1.143-2.766-1.632
		c-0.953-0.492-1.947-0.929-2.982-1.315c-1.036-0.386-2.15-0.722-3.346-1.01c-0.332,0.982-0.665,1.967-0.998,2.947
		c-0.332,0.982-0.653,1.867-0.964,2.652c-0.311,0.789-0.588,1.424-0.839,1.905C322.118,142.704,321.901,142.945,321.721,142.945z"/>
	<path fill="#231F20" d="M340.521,139.545c0-0.348,0.079-0.598,0.236-0.749c0.159-0.151,0.344-0.233,0.558-0.249
		c0-0.257,0.131-0.521,0.396-0.794s0.612-0.537,1.043-0.795c0.432-0.256,0.911-0.494,1.44-0.714
		c0.527-0.219,1.068-0.415,1.622-0.588c0.552-0.176,1.084-0.311,1.599-0.409c0.514-0.099,0.959-0.147,1.338-0.147
		c0.394,0,0.846,0.049,1.36,0.147c0.514,0.101,0.998,0.269,1.452,0.51c0.452,0.243,0.839,0.566,1.155,0.976
		c0.316,0.408,0.477,0.914,0.477,1.521c0,0.726-0.219,1.356-0.657,1.894s-1.002,0.979-1.688,1.326
		c-0.688,0.348-1.457,0.605-2.303,0.772c-0.847,0.165-1.679,0.248-2.495,0.248c-0.589,0-1.209-0.05-1.858-0.147
		c-0.651-0.098-1.247-0.264-1.792-0.498c-0.544-0.233-0.995-0.541-1.349-0.92C340.699,140.55,340.521,140.088,340.521,139.545z
		 M343.674,137.982c-0.075,0.033-0.188,0.078-0.341,0.139c-0.151,0.063-0.317,0.131-0.498,0.206
		c-0.182,0.075-0.362,0.151-0.545,0.228c-0.181,0.078-0.34,0.141-0.476,0.187c0.164,0.091,0.354,0.212,0.565,0.364
		c0.211,0.151,0.47,0.302,0.771,0.445c0.302,0.146,0.661,0.271,1.076,0.377c0.416,0.108,0.911,0.16,1.485,0.16
		c0.483,0,1.021-0.052,1.609-0.16c0.591-0.105,1.142-0.238,1.655-0.398c0.515-0.161,0.945-0.344,1.294-0.549
		c0.348-0.207,0.521-0.401,0.521-0.584c0-0.185-0.091-0.332-0.272-0.446c-0.181-0.113-0.41-0.205-0.689-0.273
		c-0.28-0.069-0.589-0.114-0.93-0.139c-0.341-0.021-0.67-0.034-0.986-0.034c-0.681,0-1.388,0.034-2.121,0.104
		C345.06,137.678,344.354,137.801,343.674,137.982z"/>
	<path fill="#231F20" d="M359.865,140.021c0.741,0,1.467-0.146,2.178-0.441c0.709-0.295,1.397-0.663,2.063-1.102
		c0.665-0.438,1.296-0.91,1.893-1.416c0.598-0.508,1.139-0.98,1.623-1.418c0.481-0.438,0.91-0.805,1.28-1.101
		c0.371-0.295,0.669-0.442,0.896-0.442c0.075,0,0.136,0.017,0.183,0.045c0.045,0.029,0.053,0.084,0.021,0.158
		c-0.287,1.014-0.786,2.012-1.497,2.994s-1.53,1.864-2.461,2.643c-0.929,0.779-1.92,1.406-2.971,1.883
		c-1.053,0.478-2.053,0.715-3.004,0.715c-0.803,0-1.497-0.159-2.087-0.477c-0.591-0.317-1.086-0.75-1.485-1.293
		c-0.4-0.545-0.695-1.185-0.884-1.916c-0.189-0.733-0.285-1.523-0.285-2.371c0.363-0.362,0.774-0.523,1.238-0.485
		c0.46,0.037,0.895,0.198,1.302,0.485c0,0.244,0.013,0.562,0.034,0.953c0.023,0.394,0.1,0.782,0.229,1.168
		c0.127,0.386,0.324,0.719,0.589,0.998S359.366,140.021,359.865,140.021z"/>
	<path fill="#231F20" d="M374.313,141.88c0-0.286-0.013-0.639-0.034-1.053c-0.023-0.417-0.05-0.859-0.079-1.328
		c-0.03-0.47-0.059-0.938-0.08-1.406c-0.021-0.469-0.033-0.899-0.033-1.292c0-0.757,0.106-1.523,0.317-2.302
		c0.211-0.779,0.518-1.536,0.918-2.269c0.399-0.733,0.893-1.44,1.475-2.121c0.582-0.68,1.235-1.293,1.961-1.836
		c-0.302,0-0.604,0.02-0.907,0.058c-0.301,0.037-0.597,0.055-0.884,0.055c-0.482,0-0.953-0.032-1.406-0.102
		c-0.452-0.066-0.872-0.158-1.259-0.271c-0.387-0.113-0.726-0.25-1.021-0.408c-0.295-0.16-0.518-0.322-0.668-0.487
		c-0.152-0.242-0.264-0.484-0.33-0.728c-0.067-0.24-0.067-0.449,0-0.623c0.066-0.174,0.213-0.307,0.431-0.396
		c0.22-0.092,0.55-0.112,0.987-0.068c0.104,0.031,0.223,0.088,0.352,0.172c0.128,0.082,0.311,0.17,0.544,0.26
		c0.234,0.092,0.54,0.174,0.919,0.25c0.377,0.074,0.862,0.113,1.451,0.113c0.516,0,1.073-0.05,1.678-0.147
		c0.604-0.099,1.195-0.204,1.771-0.317c0.573-0.111,1.103-0.22,1.586-0.316c0.485-0.099,0.863-0.147,1.135-0.147
		c0.516,0,0.884,0.147,1.111,0.442c0.226,0.296,0.339,0.623,0.339,0.986c0,0.227-0.044,0.43-0.135,0.611s-0.197,0.34-0.317,0.477
		c-0.121,0.137-0.249,0.254-0.387,0.354c-0.135,0.097-0.248,0.176-0.339,0.236c-0.379,0.242-0.741,0.457-1.089,0.646
		c-0.349,0.189-0.678,0.368-0.987,0.533c-0.31,0.167-0.598,0.337-0.861,0.511c-0.265,0.173-0.503,0.359-0.715,0.554
		c-0.514,0.485-0.981,0.985-1.405,1.498c-0.425,0.516-0.781,1.06-1.078,1.633c-0.294,0.576-0.521,1.192-0.681,1.851
		s-0.236,1.362-0.236,2.12c0,0.754,0.037,1.509,0.112,2.257s0.113,1.455,0.113,2.119c0,1.209-0.229,2.34-0.691,3.39
		c-0.461,1.053-1.085,1.971-1.87,2.758c-0.786,0.785-1.697,1.401-2.733,1.847c-1.033,0.446-2.119,0.671-3.254,0.671
		c-0.453,0-0.823-0.055-1.11-0.16c-0.288-0.104-0.512-0.227-0.67-0.359c-0.159-0.139-0.29-0.318-0.396-0.545
		c0-0.092,0.074-0.106,0.227-0.048c0.092,0.048,0.224,0.093,0.397,0.138c0.173,0.045,0.411,0.066,0.714,0.066
		c0.212,0,0.438-0.02,0.68-0.059c0.244-0.036,0.5-0.092,0.772-0.168c0.635-0.196,1.284-0.5,1.95-0.906
		c0.663-0.409,1.272-0.926,1.824-1.555c0.552-0.627,1.005-1.367,1.36-2.222C374.135,143.984,374.313,142.998,374.313,141.88z"/>
	<path fill="#231F20" d="M386.286,140.927c-0.302,0.394-0.579,0.749-0.828,1.066c-0.25,0.317-0.48,0.478-0.69,0.478
		c-0.151,0-0.284-0.072-0.397-0.217c-0.114-0.145-0.205-0.316-0.272-0.521c-0.066-0.203-0.121-0.426-0.157-0.668
		c-0.038-0.242-0.057-0.469-0.057-0.681c0.045-0.258,0.135-0.628,0.271-1.11c0.136-0.484,0.295-0.985,0.476-1.508
		c0.183-0.521,0.37-1.018,0.567-1.486c0.195-0.469,0.378-0.816,0.544-1.043c0.394,0.045,0.769,0.211,1.123,0.5
		c0.354,0.285,0.639,0.597,0.851,0.929c-0.315,0.71-0.589,1.396-0.815,2.053C386.673,139.375,386.467,140.111,386.286,140.927z
		 M387.874,130.404c0.074-0.241,0.215-0.411,0.419-0.51c0.204-0.1,0.352-0.146,0.441-0.146c0.074,0,0.186,0.02,0.329,0.057
		s0.283,0.094,0.421,0.17c0.135,0.075,0.252,0.183,0.351,0.316c0.099,0.136,0.148,0.296,0.148,0.477c0,0.166-0.063,0.334-0.184,0.5
		c-0.12,0.166-0.241,0.312-0.361,0.43l-0.318,0.296c-0.195,0.182-0.4,0.383-0.611,0.603c-0.212,0.219-0.412,0.422-0.602,0.611
		c-0.189,0.188-0.367,0.345-0.533,0.464c-0.165,0.122-0.302,0.183-0.407,0.183c-0.121,0-0.228-0.054-0.317-0.16
		c-0.091-0.104-0.136-0.231-0.136-0.385c0-0.15,0.056-0.365,0.168-0.646c0.113-0.28,0.247-0.567,0.398-0.86
		c0.15-0.296,0.302-0.572,0.453-0.83C387.684,130.716,387.799,130.525,387.874,130.404z"/>
	<path fill="#231F20" d="M391.456,142.583c-0.56,0-0.982-0.197-1.271-0.59c-0.286-0.394-0.481-0.899-0.589-1.521
		c-0.104-0.619-0.146-1.322-0.125-2.107c0.022-0.786,0.072-1.58,0.147-2.383c0.394-0.241,0.828-0.342,1.304-0.305
		c0.478,0.037,0.864,0.23,1.168,0.578c-0.09,0.86-0.132,1.571-0.125,2.131c0.008,0.561,0.049,1.051,0.125,1.475
		c0.302-0.228,0.657-0.5,1.066-0.816c0.408-0.316,0.839-0.645,1.292-0.984c0.454-0.343,0.911-0.678,1.372-1.012
		c0.461-0.332,0.898-0.63,1.314-0.895c0.416-0.266,0.794-0.477,1.134-0.637c0.341-0.158,0.616-0.238,0.828-0.238
		c0.167,0,0.25,0.076,0.25,0.228c0,0.167-0.136,0.458-0.406,0.875c-0.272,0.415-0.634,0.884-1.079,1.406
		c-0.444,0.521-0.952,1.065-1.52,1.632c-0.566,0.566-1.142,1.084-1.725,1.555c-0.582,0.469-1.148,0.854-1.7,1.155
		C392.366,142.432,391.878,142.583,391.456,142.583z"/>
	<path fill="#231F20" d="M414.681,140.542c0.227,0.288,0.44,0.522,0.646,0.703c0.203,0.182,0.386,0.33,0.544,0.442
		s0.284,0.203,0.374,0.271c0.091,0.066,0.137,0.132,0.137,0.191c0,0.045-0.031,0.1-0.091,0.158
		c-0.063,0.063-0.159,0.092-0.295,0.092c-0.53,0-1.021-0.119-1.475-0.362c-0.453-0.242-0.854-0.529-1.202-0.86
		c-0.349-0.334-0.632-0.67-0.851-1.011c-0.22-0.341-0.359-0.606-0.419-0.806c-0.047,0.046-0.204,0.154-0.477,0.33
		c-0.272,0.173-0.621,0.381-1.043,0.621c-0.425,0.244-0.919,0.492-1.486,0.75c-0.567,0.256-1.168,0.498-1.803,0.727
		c-0.636,0.227-1.302,0.411-1.996,0.554c-0.695,0.146-1.384,0.218-2.064,0.218c-0.286,0-0.578-0.043-0.873-0.125
		c-0.294-0.082-0.559-0.207-0.794-0.373c-0.232-0.168-0.423-0.383-0.565-0.647c-0.145-0.265-0.215-0.594-0.215-0.985
		c0-0.393,0.154-0.82,0.464-1.281c0.311-0.461,0.723-0.907,1.236-1.338c0.514-0.432,1.101-0.832,1.758-1.201
		c0.657-0.371,1.329-0.674,2.019-0.908s1.373-0.383,2.053-0.442c0.682-0.061,1.293,0,1.838,0.183
		c0.194,0.183,0.316,0.386,0.361,0.611c0.046,0.228,0.033,0.452-0.034,0.68c-0.066,0.228-0.181,0.433-0.34,0.613
		c-0.159,0.184-0.337,0.316-0.532,0.408h-0.272c-0.076,0-0.169-0.003-0.282-0.011c-0.113-0.009-0.238-0.013-0.374-0.013
		c-0.47,0-0.956,0.08-1.463,0.24s-0.99,0.362-1.452,0.606c-0.462,0.245-0.885,0.509-1.271,0.789
		c-0.387,0.282-0.69,0.546-0.918,0.791c0.907-0.046,1.782-0.229,2.631-0.55c0.847-0.318,1.633-0.661,2.357-1.026
		c0.727-0.367,1.384-0.698,1.975-0.995c0.589-0.296,1.079-0.445,1.474-0.445c0.545,0,0.934,0.104,1.167,0.308
		c0.235,0.204,0.416,0.468,0.545,0.793s0.25,0.688,0.363,1.089C414.147,139.729,414.363,140.134,414.681,140.542z"/>
	<path fill="#231F20" d="M440.578,137.773c0.408,0.168,0.778,0.346,1.111,0.535c0.332,0.188,0.498,0.365,0.498,0.531
		c0,0.151-0.117,0.276-0.353,0.375c-0.233,0.1-0.548,0.146-0.938,0.146c-0.44-0.016-1.033-0.041-1.781-0.078
		c-0.749-0.039-1.547-0.077-2.394-0.114c-0.848-0.037-1.692-0.071-2.539-0.103c-0.849-0.028-1.589-0.045-2.224-0.045
		c-0.438,0-0.852,0.013-1.236,0.033c-0.384,0.021-0.726,0.045-1.021,0.069c-0.295,0.022-0.533,0.04-0.715,0.056
		c-0.181,0.016-0.286,0.022-0.317,0.022c-0.104-0.062-0.206-0.191-0.307-0.396c-0.098-0.205-0.168-0.428-0.215-0.671
		c-0.046-0.241-0.058-0.481-0.034-0.726c0.022-0.241,0.108-0.438,0.262-0.59c0.302-0.029,0.627-0.067,0.975-0.112
		c0.304-0.03,0.65-0.062,1.044-0.092c0.394-0.029,0.816-0.044,1.271-0.044c0.998,0,1.89,0.015,2.677,0.044
		c0.785,0.03,1.522,0.089,2.21,0.171c0.689,0.084,1.354,0.204,1.995,0.363C439.189,137.311,439.867,137.52,440.578,137.773z"/>
	<path fill="#231F20" d="M467.654,137.617c-0.452,0.604-0.963,1.208-1.529,1.814c-0.567,0.604-1.173,1.147-1.814,1.633
		c-0.643,0.481-1.312,0.877-2.007,1.18c-0.695,0.301-1.397,0.453-2.108,0.453c-0.545,0-1.056-0.117-1.531-0.354
		c-0.477-0.233-0.892-0.54-1.247-0.917c-0.356-0.378-0.635-0.813-0.839-1.304s-0.306-1.002-0.306-1.531l-1.202,0.341
		c-0.35-0.227-0.6-0.562-0.749-0.998c-0.151-0.438-0.121-0.892,0.091-1.359c0.332-0.121,0.643-0.213,0.931-0.273
		c0.285-0.06,0.598-0.136,0.931-0.226c0.119-0.847,0.364-1.689,0.736-2.529c0.369-0.839,0.81-1.646,1.314-2.416
		c0.506-0.771,1.055-1.495,1.645-2.178c0.59-0.679,1.184-1.289,1.779-1.824c0.598-0.537,1.161-0.991,1.689-1.36
		c0.528-0.371,0.989-0.631,1.385-0.781c0.693-0.017,1.159,0.164,1.394,0.543c0.234,0.378,0.142,0.908-0.282,1.589
		c-0.379,0.227-0.881,0.563-1.51,1.009c-0.626,0.446-1.289,1.021-1.982,1.725c-0.695,0.703-1.373,1.533-2.029,2.493
		c-0.658,0.96-1.199,2.06-1.621,3.3c0.86-0.09,1.782-0.166,2.766-0.227c0.983-0.063,1.861-0.092,2.631-0.092
		c0.592,0,1.073,0.008,1.451,0.023c0.378,0.014,0.582,0.021,0.613,0.021c0.135-0.211,0.347-0.528,0.636-0.953
		c0.286-0.423,0.569-0.91,0.85-1.461c0.278-0.555,0.528-1.156,0.749-1.814c0.219-0.658,0.329-1.334,0.329-2.029
		c0-0.605-0.11-1.114-0.329-1.53c-0.221-0.417-0.457-0.769-0.715-1.058c-0.259-0.284-0.495-0.522-0.716-0.713
		c-0.219-0.188-0.327-0.352-0.327-0.486c0-0.063,0.029-0.092,0.091-0.092c0.528,0.045,1.017,0.225,1.463,0.533
		c0.444,0.311,0.831,0.699,1.155,1.168s0.578,0.99,0.762,1.563c0.18,0.575,0.271,1.157,0.271,1.747c0,0.589-0.065,1.172-0.203,1.746
		s-0.304,1.111-0.498,1.609c-0.196,0.498-0.397,0.949-0.603,1.352c-0.204,0.398-0.382,0.721-0.533,0.963
		c0.197,0.061,0.404,0.132,0.623,0.216c0.222,0.082,0.413,0.169,0.578,0.261c0.168,0.09,0.308,0.178,0.42,0.262
		c0.114,0.082,0.172,0.162,0.172,0.238c0,0.118-0.091,0.223-0.272,0.306s-0.411,0.153-0.69,0.215
		c-0.281,0.062-0.584,0.106-0.907,0.137C468.226,137.579,467.928,137.604,467.654,137.617z M464.458,137.73
		c-0.394,0-0.844,0.002-1.35,0.012c-0.507,0.008-1.024,0.021-1.555,0.046c-0.528,0.021-1.048,0.067-1.553,0.134
		c-0.506,0.069-0.957,0.155-1.35,0.262c0.12,1.346,0.618,2.019,1.497,2.019c0.376,0,0.771-0.078,1.179-0.236
		c0.409-0.159,0.805-0.36,1.189-0.603c0.386-0.241,0.745-0.51,1.078-0.807C463.928,138.264,464.217,137.986,464.458,137.73z"/>
	<path fill="#231F20" d="M482.169,141.2c-0.347,0.166-0.729,0.321-1.144,0.466c-0.417,0.143-0.849,0.268-1.294,0.373
		c-0.446,0.105-0.892,0.191-1.338,0.262c-0.447,0.066-0.874,0.124-1.282,0.17c-0.21,0.029-0.57,0.045-1.076,0.045
		s-1.021-0.058-1.542-0.172c-0.521-0.111-0.979-0.309-1.372-0.587c-0.395-0.28-0.591-0.687-0.591-1.215
		c0-0.347,0.093-0.661,0.272-0.94c0.183-0.279,0.412-0.524,0.691-0.737c0.28-0.212,0.582-0.392,0.907-0.544
		c0.324-0.151,0.625-0.271,0.896-0.363c-0.104-0.12-0.223-0.277-0.352-0.477c-0.129-0.195-0.193-0.377-0.193-0.545
		c0-0.256,0.054-0.476,0.159-0.656c0.104-0.182,0.243-0.34,0.408-0.477c0.167-0.138,0.349-0.246,0.545-0.328
		c0.196-0.084,0.377-0.148,0.545-0.193c0.378-0.105,0.785-0.195,1.224-0.271c0.438-0.074,0.874-0.132,1.305-0.169
		c0.432-0.039,0.843-0.055,1.235-0.047c0.394,0.008,0.734,0.033,1.021,0.079c0.271,0.197,0.439,0.402,0.5,0.611
		c0.06,0.214,0.063,0.416,0.013,0.613c-0.054,0.197-0.146,0.375-0.272,0.533c-0.13,0.158-0.254,0.276-0.375,0.352
		c-0.046,0-0.174-0.008-0.386-0.023c-0.212-0.014-0.458-0.032-0.737-0.057c-0.278-0.023-0.565-0.041-0.859-0.058
		c-0.297-0.015-0.534-0.015-0.717,0l1.066,0.229c0.212,0.075,0.37,0.196,0.477,0.362c0.105,0.168,0.158,0.355,0.158,0.566
		c0,0.257-0.125,0.471-0.373,0.635c-0.249,0.166-0.594,0.317-1.032,0.454c-0.12,0.03-0.335,0.091-0.646,0.183
		c-0.311,0.09-0.643,0.185-0.998,0.283c-0.355,0.1-0.7,0.204-1.03,0.317c-0.333,0.112-0.576,0.207-0.727,0.283
		c-0.077,0.028-0.109,0.067-0.104,0.112c0.008,0.045,0.056,0.075,0.146,0.092c0.303,0.043,0.696,0.074,1.179,0.091
		c0.484,0.015,1.014,0.015,1.589,0c0.574-0.017,1.169-0.042,1.779-0.079c0.612-0.039,1.199-0.098,1.758-0.172
		c0.832-0.135,1.414-0.199,1.746-0.191c0.333,0.008,0.488,0.063,0.467,0.17c-0.023,0.106-0.189,0.25-0.5,0.432
		C483.005,140.792,482.623,140.988,482.169,141.2z M479.563,130.404c0.075-0.241,0.215-0.411,0.421-0.51
		c0.204-0.1,0.351-0.146,0.439-0.146c0.076,0,0.187,0.02,0.33,0.057s0.282,0.094,0.419,0.17c0.136,0.075,0.253,0.183,0.352,0.316
		c0.1,0.136,0.147,0.296,0.147,0.477c0,0.166-0.061,0.334-0.182,0.5s-0.241,0.312-0.362,0.43l-0.318,0.296
		c-0.195,0.182-0.398,0.383-0.612,0.603c-0.21,0.219-0.411,0.422-0.601,0.611c-0.188,0.188-0.365,0.345-0.532,0.464
		c-0.166,0.122-0.304,0.183-0.408,0.183c-0.12,0-0.228-0.054-0.317-0.16c-0.091-0.104-0.137-0.231-0.137-0.385
		c0-0.15,0.058-0.365,0.171-0.646s0.246-0.567,0.398-0.86c0.148-0.296,0.301-0.572,0.451-0.83
		C479.373,130.716,479.485,130.525,479.563,130.404z"/>
	<path fill="#231F20" d="M497.681,137.436c0,0.545-0.157,1.049-0.476,1.52c-0.318,0.47-0.737,0.896-1.259,1.281
		c-0.521,0.387-1.118,0.727-1.791,1.021s-1.357,0.532-2.055,0.713c-0.693,0.182-1.374,0.313-2.041,0.387
		c-0.665,0.074-1.262,0.082-1.792,0.021c-0.014,0.061-0.048,0.197-0.101,0.408c-0.054,0.211-0.114,0.48-0.182,0.806
		c-0.068,0.326-0.129,0.69-0.182,1.101c-0.054,0.408-0.081,0.832-0.081,1.269c0,0.606,0.064,1.161,0.194,1.668
		c0.128,0.507,0.271,0.948,0.431,1.328c0.158,0.377,0.306,0.683,0.441,0.918c0.137,0.233,0.203,0.374,0.203,0.418
		c0,0.075-0.009,0.113-0.033,0.113c-0.021,0-0.063,0-0.125,0c-0.076,0-0.186-0.033-0.328-0.103
		c-0.142-0.068-0.302-0.168-0.476-0.306c-0.175-0.138-0.355-0.308-0.545-0.511c-0.188-0.204-0.36-0.436-0.512-0.69
		c-0.166-0.272-0.327-0.563-0.486-0.874c-0.159-0.309-0.298-0.656-0.42-1.044c-0.121-0.384-0.22-0.819-0.294-1.304
		c-0.076-0.482-0.113-1.042-0.113-1.678c0-0.424,0.06-0.935,0.18-1.531c0.122-0.598,0.323-1.221,0.604-1.87
		c0.279-0.649,0.642-1.296,1.089-1.94c0.444-0.642,0.989-1.216,1.633-1.721c0.642-0.508,1.386-0.916,2.233-1.227
		c0.847-0.311,1.813-0.467,2.901-0.467c0.696,0,1.267,0.082,1.713,0.24s0.79,0.352,1.031,0.577c0.242,0.228,0.407,0.472,0.499,0.737
		C497.636,136.963,497.681,137.209,497.681,137.436z M494.188,138.456c0.214-0.151,0.409-0.312,0.592-0.478
		c0.182-0.166,0.31-0.287,0.385-0.361c0-0.076-0.113-0.146-0.341-0.217c-0.227-0.066-0.43-0.103-0.611-0.103
		c-0.378,0-0.786,0.087-1.225,0.263c-0.438,0.172-0.872,0.393-1.305,0.656c-0.431,0.264-0.836,0.545-1.214,0.84
		c-0.376,0.295-0.687,0.563-0.93,0.805c0.333,0,0.696-0.02,1.089-0.057c0.395-0.037,0.794-0.109,1.201-0.217
		c0.409-0.104,0.817-0.248,1.226-0.43C493.462,138.979,493.841,138.744,494.188,138.456z"/>
	<path fill="#231F20" d="M502.511,142.094c-0.104,0.303-0.25,0.709-0.431,1.225c-0.182,0.513-0.377,1.07-0.59,1.677
		c-0.212,0.604-0.422,1.219-0.635,1.846c-0.213,0.626-0.408,1.204-0.591,1.733c-0.182,0.785-0.344,1.343-0.487,1.677
		c-0.144,0.332-0.274,0.498-0.396,0.498c-0.091,0-0.171-0.11-0.237-0.328c-0.067-0.219-0.117-0.509-0.148-0.872
		c0-1.568,0.148-3.141,0.442-4.718c0.296-1.576,0.691-3.118,1.189-4.631c0.5-1.511,1.086-2.979,1.759-4.407
		c0.671-1.43,1.401-2.771,2.188-4.025s1.601-2.412,2.438-3.471s1.682-1.979,2.527-2.768c0.227-0.137,0.466-0.182,0.715-0.137
		c0.25,0.047,0.464,0.151,0.646,0.318c0.182,0.165,0.32,0.378,0.421,0.635c0.098,0.256,0.115,0.545,0.057,0.861
		c-0.168,0.091-0.462,0.363-0.885,0.816s-0.904,1.022-1.439,1.711c-0.538,0.688-1.101,1.457-1.69,2.304
		c-0.589,0.846-1.125,1.708-1.608,2.585c-0.485,0.877-0.882,1.73-1.191,2.563c-0.309,0.834-0.466,1.573-0.466,2.224
		c0,0.288,0.039,0.569,0.114,0.851c0.076,0.279,0.219,0.42,0.432,0.42c0.15,0,0.357-0.074,0.623-0.227
		c0.264-0.151,0.57-0.364,0.919-0.637c0.469-0.379,0.948-0.803,1.439-1.28c0.491-0.476,1.002-0.923,1.53-1.338
		c0.528-0.416,1.079-0.769,1.646-1.056s1.16-0.431,1.779-0.431c0.529,0,0.979,0.101,1.35,0.302c0.37,0.202,0.682,0.471,0.932,0.799
		c0.249,0.33,0.448,0.697,0.601,1.104c0.151,0.407,0.261,0.82,0.329,1.244c0.067,0.424,0.113,0.822,0.136,1.201
		c0.023,0.379,0.034,0.703,0.034,0.977c0,0.453-0.011,0.789-0.034,1.008c-0.021,0.219-0.095,0.329-0.217,0.329
		c-0.09,0-0.226-0.132-0.407-0.396c-0.181-0.266-0.34-0.551-0.477-0.853c-0.165-0.362-0.317-0.737-0.453-1.12
		c-0.137-0.387-0.283-0.742-0.442-1.066c-0.158-0.327-0.339-0.596-0.544-0.807c-0.204-0.211-0.448-0.317-0.735-0.317
		c-0.396,0-0.772,0.118-1.137,0.353c-0.361,0.234-0.744,0.536-1.145,0.907c-0.4,0.37-0.836,0.785-1.304,1.247
		c-0.47,0.461-1.015,0.91-1.634,1.35c-0.393,0.272-0.805,0.524-1.235,0.76c-0.432,0.233-1.001,0.353-1.712,0.353
		c-0.349,0-0.7-0.103-1.055-0.304C503.074,142.576,502.769,142.35,502.511,142.094z"/>
	<path fill="#231F20" d="M532.426,140.542c0.227,0.288,0.441,0.522,0.646,0.703c0.203,0.182,0.386,0.33,0.544,0.442
		c0.159,0.112,0.284,0.203,0.375,0.271c0.09,0.066,0.135,0.132,0.135,0.191c0,0.045-0.029,0.1-0.091,0.158
		c-0.061,0.063-0.157,0.092-0.294,0.092c-0.529,0-1.021-0.119-1.475-0.362c-0.453-0.242-0.854-0.529-1.203-0.86
		c-0.348-0.334-0.631-0.67-0.849-1.011c-0.221-0.341-0.359-0.606-0.42-0.806c-0.047,0.046-0.205,0.154-0.478,0.33
		c-0.272,0.173-0.62,0.381-1.042,0.621c-0.425,0.244-0.919,0.492-1.486,0.75c-0.566,0.256-1.168,0.498-1.803,0.727
		c-0.636,0.227-1.302,0.411-1.996,0.554c-0.695,0.146-1.385,0.218-2.064,0.218c-0.286,0-0.577-0.043-0.872-0.125
		c-0.294-0.082-0.56-0.207-0.794-0.373c-0.234-0.168-0.424-0.383-0.565-0.647c-0.146-0.265-0.216-0.594-0.216-0.985
		c0-0.393,0.153-0.82,0.464-1.281s0.724-0.907,1.236-1.338c0.514-0.432,1.101-0.832,1.757-1.201c0.659-0.371,1.33-0.674,2.021-0.908
		c0.688-0.234,1.371-0.383,2.052-0.442c0.681-0.061,1.292,0,1.837,0.183c0.196,0.183,0.318,0.386,0.362,0.611
		c0.046,0.228,0.034,0.452-0.034,0.68c-0.066,0.228-0.181,0.433-0.34,0.613c-0.158,0.184-0.336,0.316-0.533,0.408h-0.271
		c-0.075,0-0.168-0.003-0.282-0.011c-0.113-0.009-0.239-0.013-0.374-0.013c-0.469,0-0.957,0.08-1.463,0.24
		c-0.508,0.16-0.99,0.362-1.452,0.606c-0.462,0.245-0.885,0.509-1.271,0.789c-0.385,0.282-0.689,0.546-0.917,0.791
		c0.907-0.046,1.783-0.229,2.631-0.55c0.847-0.319,1.634-0.661,2.358-1.026c0.725-0.367,1.383-0.698,1.973-0.995
		c0.59-0.296,1.08-0.445,1.475-0.445c0.545,0,0.934,0.104,1.168,0.308s0.416,0.468,0.545,0.793c0.128,0.325,0.25,0.688,0.363,1.089
		C531.894,139.73,532.107,140.134,532.426,140.542z"/>
	<path fill="#231F20" d="M537.617,142.583c-0.56,0-0.982-0.197-1.271-0.59c-0.288-0.394-0.483-0.899-0.591-1.521
		c-0.104-0.619-0.146-1.322-0.124-2.107c0.023-0.786,0.072-1.58,0.147-2.383c0.394-0.241,0.828-0.342,1.304-0.305
		c0.478,0.037,0.866,0.23,1.169,0.578c-0.091,0.86-0.134,1.571-0.125,2.131c0.007,0.561,0.05,1.051,0.125,1.475
		c0.301-0.228,0.656-0.5,1.065-0.816c0.407-0.316,0.84-0.645,1.293-0.984c0.452-0.343,0.909-0.678,1.372-1.012
		c0.461-0.332,0.897-0.63,1.314-0.895c0.415-0.266,0.793-0.477,1.133-0.637c0.342-0.158,0.616-0.238,0.829-0.238
		c0.166,0,0.249,0.076,0.249,0.228c0,0.167-0.137,0.458-0.408,0.875c-0.271,0.415-0.632,0.884-1.076,1.406
		c-0.446,0.521-0.953,1.065-1.521,1.632c-0.566,0.566-1.143,1.084-1.724,1.555c-0.582,0.469-1.148,0.854-1.701,1.155
		C538.528,142.432,538.04,142.583,537.617,142.583z"/>
	<path fill="#231F20" d="M555.283,135.371c0.635,0,1.118,0.02,1.452,0.059c0.333,0.036,0.499,0.094,0.499,0.168
		c0,0.105-0.146,0.213-0.433,0.318c-0.288,0.105-0.628,0.216-1.02,0.328c-0.395,0.113-0.798,0.229-1.214,0.341
		c-0.417,0.113-0.762,0.231-1.031,0.351c0.287,0,0.566,0.027,0.839,0.082c0.271,0.051,0.551,0.116,0.839,0.191
		c0.151,0.029,0.336,0.098,0.557,0.203c0.218,0.105,0.427,0.249,0.623,0.432c0.195,0.182,0.361,0.404,0.498,0.67
		s0.204,0.577,0.204,0.939c0,0.438-0.116,0.82-0.352,1.146c-0.234,0.323-0.54,0.601-0.918,0.826
		c-0.38,0.227-0.805,0.411-1.281,0.557c-0.477,0.144-0.949,0.257-1.419,0.341c-0.468,0.081-0.914,0.144-1.337,0.182
		c-0.424,0.037-0.778,0.056-1.066,0.056c-0.257,0-0.618-0.021-1.088-0.067c-0.47-0.045-0.934-0.158-1.395-0.341
		c-0.461-0.182-0.861-0.442-1.202-0.78c-0.34-0.34-0.511-0.798-0.511-1.373c0-0.726,0.271-1.376,0.815-1.95
		c0.545-0.574,1.243-1.059,2.099-1.451c0.854-0.394,1.796-0.695,2.823-0.908C553.295,135.479,554.301,135.371,555.283,135.371z
		 M554.513,139.316c-0.438-0.227-0.919-0.324-1.439-0.295c-0.521,0.03-1.024,0.062-1.509,0.092c-0.47,0.029-0.882,0.088-1.234,0.171
		c-0.355,0.082-0.655,0.169-0.896,0.261c-0.242,0.09-0.425,0.173-0.544,0.249c-0.12,0.075-0.183,0.121-0.183,0.136
		c0,0.075,0.08,0.148,0.239,0.217c0.159,0.067,0.344,0.127,0.555,0.182c0.212,0.054,0.427,0.092,0.647,0.113
		c0.218,0.021,0.396,0.025,0.531,0.012c0.287-0.016,0.631-0.051,1.032-0.104c0.399-0.054,0.802-0.119,1.202-0.203
		c0.398-0.084,0.773-0.182,1.122-0.295c0.348-0.115,0.604-0.246,0.771-0.397c-0.015-0.029-0.025-0.06-0.032-0.091
		C554.766,139.333,554.679,139.316,554.513,139.316z"/>
	<path fill="#231F20" d="M562.587,137.436c-0.076,0.168-0.167,0.357-0.271,0.58c-0.106,0.219-0.212,0.463-0.317,0.734
		c0.514-0.348,1.028-0.684,1.542-1.008c0.516-0.326,1.032-0.608,1.554-0.852c0.522-0.242,1.053-0.435,1.588-0.578
		c0.536-0.145,1.084-0.217,1.646-0.217c0.618,0,1.13,0.163,1.53,0.488c0.398,0.326,0.71,0.718,0.93,1.18
		c0.218,0.461,0.352,0.952,0.396,1.476c0.047,0.521,0.03,0.985-0.045,1.394c-0.12,0.666-0.233,1.131-0.34,1.395
		c-0.106,0.265-0.213,0.394-0.316,0.388c-0.106-0.01-0.209-0.132-0.307-0.375c-0.1-0.242-0.201-0.537-0.308-0.885
		c-0.03-0.196-0.079-0.446-0.146-0.749c-0.066-0.301-0.163-0.59-0.283-0.86c-0.121-0.272-0.275-0.506-0.464-0.704
		c-0.19-0.195-0.414-0.294-0.671-0.294c-0.635,0-1.231,0.104-1.792,0.316c-0.56,0.213-1.081,0.478-1.563,0.794
		c-0.483,0.316-0.935,0.656-1.35,1.021c-0.417,0.36-0.806,0.701-1.169,1.021c-0.361,0.317-0.703,0.583-1.021,0.793
		c-0.318,0.212-0.62,0.317-0.906,0.317c-0.303,0-0.542-0.054-0.715-0.158c-0.174-0.106-0.308-0.254-0.397-0.441
		c-0.091-0.189-0.146-0.413-0.169-0.67c-0.022-0.257-0.035-0.527-0.035-0.816c0-0.271,0.063-0.664,0.183-1.179
		s0.262-1.045,0.42-1.589s0.324-1.036,0.499-1.475c0.173-0.438,0.32-0.709,0.44-0.816c0.62-0.165,1.104-0.139,1.452,0.081
		c0.348,0.219,0.566,0.614,0.657,1.188L562.587,137.436z"/>
</g>
</svg>
